<?xml version="1.0" encoding="UTF-8" standalone="no"?>
<svg xmlns="http://www.w3.org/2000/svg" version="1.1"
   width="140" height="140" viewBox="0 0 140 140" >
    <circle style="fill:#000" cx="70" cy="70" r="58" />
    <path style="fill:#999"
       d="m 50.8,22.6

       c 0,3.5 6.7,5.1 5.2,13.5
       l -5,28
       c -2,11.2 7,23 19,23
       c 12,0 21,-11.8 19,-23
       l -5,-28
       c -1.5,-8.4 5.2,-10 5.2,-13.5

       v -7.3

       c 6,2.1 10.9,4.8 16,8.6
       c 0.5,-0.6 2.2,-2 1,-3
       c -4.8,-4 -10.7,-6.7 -17,-9
       c -6.7,-2.2 -7,-0.7 -7,-3.5
       c 0,-3 -0.6,-4.3 -3.6,-4.3
       h -17.2
       c -3,0 -3.6,1.3 -3.6,4.3
       c 0,2.8 -0.3,1.3 -7,3.5
       c -6.3,2.3 -12.2,5 -17,9
       c -1.2,1 0.5,2.4 1,3
       c 5.1,-3.8 10,-6.5 16,-8.6

       z" />
    <circle style="fill:#000" cx="70" cy="25" r="7" />
    <circle style="fill:#000" cx="70" cy="70" r="8.2" />
    <path style="fill:#999" d="m 75.2,73 -5.2,3 -5.2,-3 0,-6 5.2,-3 5.2,3 z" />
    <circle style="fill:#000" cx="70" cy="70" r="3.9" />
    <circle style="fill:#999" cx="70" cy="70" r="2.7" />
</svg>
